<svg width="483" height="896" viewBox="0 0 483 896" fill="none" xmlns="http://www.w3.org/2000/svg">
<g clip-path="url(#clip0_312_872)">
<path d="M276 896H236.64C235.684 896 235.046 895.362 235.046 894.405C235.046 893.449 235.684 892.811 236.64 892.811H276C324.284 892.811 363.645 853.424 363.645 805.108C363.645 756.792 324.284 717.406 276 717.406H204.451C154.414 717.406 113.619 676.584 113.619 626.514C113.619 576.444 154.414 535.623 204.451 535.623H276C324.284 535.623 363.645 496.236 363.645 447.92C363.645 399.604 324.284 360.218 276 360.218H204.451C154.414 360.218 113.619 319.396 113.619 269.326C113.619 219.256 154.414 178.435 204.451 178.435H276C324.284 178.435 363.645 139.048 363.645 90.7322C363.645 42.4161 324.284 3.02973 276 3.02973H236.64C235.684 3.02973 235.046 2.39189 235.046 1.43514C235.046 0.478382 235.684 -0.159454 236.64 -0.159454H276C326.037 -0.159454 366.832 40.662 366.832 90.7322C366.832 140.802 326.037 181.624 276 181.624H204.451C156.166 181.624 116.806 221.01 116.806 269.326C116.806 317.642 156.166 357.029 204.451 357.029H276C326.037 357.029 366.832 397.85 366.832 447.92C366.832 497.99 326.037 538.812 276 538.812H204.451C156.166 538.812 116.806 578.198 116.806 626.514C116.806 674.83 156.166 714.217 204.451 714.217H276C326.037 714.217 366.832 755.038 366.832 805.108C366.832 855.178 326.037 896 276 896Z" fill="#A1A2AA"/>
<path d="M178.794 127.248V121.986L197.916 93.2835C199.032 91.5295 199.988 90.2538 200.625 88.9781C201.263 87.8619 202.06 86.4268 203.016 84.6728C203.972 82.9187 204.609 81.1647 205.087 79.5701C205.565 77.9755 205.725 76.3809 205.725 74.7863C205.725 70.3215 204.928 66.8133 203.494 64.262C202.06 61.7107 199.669 60.435 196.323 60.435C194.411 60.435 192.817 60.7539 191.383 61.3917C189.949 62.0296 188.833 62.8269 188.196 63.7836C187.399 64.7404 186.762 66.0161 186.284 67.6106C185.805 69.2052 185.487 70.6404 185.327 72.0755C185.168 73.5106 185.168 75.2647 185.168 77.1782H178.953V76.2214C179.272 62.3485 185.009 55.3323 196.323 55.3323C201.581 55.3323 205.406 57.0864 208.115 60.435C210.824 63.9431 212.099 68.7269 212.099 74.7863C212.099 77.6566 211.302 81.0052 209.708 84.5133C208.115 88.1809 206.203 91.5295 204.131 94.5592L186.284 122.305H211.302V127.408H178.794V127.248Z" fill="#CCCCD1"/>
<path d="M219.429 106.678V76.8593C219.429 74.3079 219.588 72.0755 219.907 70.0025C220.225 67.9296 220.863 66.0161 221.66 64.1026C222.456 62.1891 223.572 60.7539 224.847 59.3188C226.122 58.0431 227.715 57.0864 229.627 56.2891C231.54 55.4918 233.771 55.1729 236.32 55.1729C238.87 55.1729 241.101 55.4918 243.013 56.2891C244.925 57.0864 246.519 58.0431 247.794 59.3188C249.068 60.5945 250.025 62.1891 250.981 64.1026C251.777 66.0161 252.415 67.9296 252.734 70.0025C253.052 72.0755 253.212 74.4674 253.212 76.8593V106.678C253.212 121.189 247.634 128.365 236.32 128.365C225.006 128.365 219.429 121.189 219.429 106.678ZM246.837 108.113V75.5836C246.837 65.3782 243.332 60.435 236.161 60.435C229.149 60.435 225.484 65.5377 225.484 75.5836V108.113C225.484 118.319 228.99 123.421 236.161 123.421C243.332 123.421 246.837 118.319 246.837 108.113Z" fill="#CCCCD1"/>
<path d="M267.235 127.248V66.3349C266.12 67.1322 264.686 67.9295 263.092 68.5674C261.499 69.2052 260.224 69.6836 259.268 70.0025V64.1025C260.861 63.4647 262.773 62.5079 264.686 61.2323C266.598 59.9566 268.191 58.2025 269.307 56.4485H273.609V127.408H267.235V127.248Z" fill="#CCCCD1"/>
<path d="M292.572 89.7755C289.704 88.9782 287.473 87.0647 285.561 84.1944C283.808 81.3241 282.852 77.6566 282.852 73.0323C282.852 70.4809 283.17 68.089 283.808 66.0161C284.445 63.9431 285.401 62.0296 286.676 60.435C287.951 58.8404 289.704 57.5647 291.775 56.608C293.847 55.6512 296.397 55.1729 299.265 55.1729C302.133 55.1729 304.683 55.6512 306.755 56.608C308.826 57.5647 310.579 58.8404 311.854 60.435C313.129 62.0296 314.085 63.9431 314.722 66.0161C315.36 68.089 315.678 70.4809 315.678 73.0323C315.678 77.6566 314.722 81.3241 312.969 84.1944C311.216 87.0647 308.826 88.9782 305.958 89.7755C312.491 92.3268 315.678 98.5457 315.678 108.273C315.678 121.667 310.26 128.524 299.265 128.524C288.27 128.524 282.852 121.827 282.852 108.273C282.852 98.3862 286.198 92.3268 292.572 89.7755ZM299.265 86.9052C303.089 86.7457 305.639 85.4701 307.233 83.3971C308.667 81.3241 309.464 77.816 309.464 72.8728C309.464 68.2485 308.667 65.0593 307.073 63.1458C305.48 61.2323 302.93 60.2755 299.424 60.2755C295.919 60.2755 293.369 61.2323 291.775 63.1458C290.182 65.0593 289.385 68.2485 289.385 72.8728C289.385 77.816 290.182 81.3241 291.616 83.3971C292.891 85.6295 295.44 86.7457 299.265 86.9052ZM299.265 92.3268C295.6 92.8052 292.891 94.3998 291.457 97.1106C289.863 99.8214 289.226 103.648 289.226 108.432C289.226 111.462 289.385 113.854 289.863 115.927C290.341 117.84 290.979 119.435 291.775 120.551C292.731 121.667 293.688 122.465 294.962 122.783C296.237 123.262 297.671 123.421 299.424 123.421C301.177 123.421 302.611 123.262 303.886 122.783C305.161 122.305 306.117 121.508 307.073 120.551C308.029 119.435 308.667 118 308.986 115.927C309.464 114.013 309.623 111.462 309.623 108.432C309.623 103.648 308.826 99.9808 307.392 97.1106C305.639 94.2403 302.93 92.8052 299.265 92.3268Z" fill="#CCCCD1"/>
<path d="M166.046 305.683V300.421L185.168 271.718C186.284 269.964 187.24 268.688 187.877 267.413C188.515 266.296 189.311 264.861 190.268 263.107C191.224 261.353 191.861 259.599 192.339 258.005C192.817 256.41 192.977 254.815 192.977 253.221C192.977 248.756 192.18 245.248 190.746 242.696C189.311 240.145 186.921 238.869 183.575 238.869C181.663 238.869 180.069 239.188 178.635 239.826C177.201 240.464 176.085 241.261 175.448 242.218C174.651 243.175 174.014 244.451 173.536 246.045C173.057 247.64 172.739 249.075 172.579 250.51C172.42 251.945 172.42 253.699 172.42 255.613H166.205V254.656C166.524 240.783 172.261 233.767 183.575 233.767C188.833 233.767 192.658 235.521 195.367 238.869C198.076 242.378 199.351 247.161 199.351 253.221C199.351 256.091 198.554 259.44 196.96 262.948C195.367 266.615 193.455 269.964 191.383 272.994L173.536 300.74H198.554V305.842H166.046V305.683Z" fill="#CCCCD1"/>
<path d="M206.521 285.113V255.294C206.521 252.743 206.681 250.51 207 248.437C207.318 246.364 207.956 244.451 208.752 242.537C209.549 240.624 210.665 239.188 211.939 237.753C213.214 236.478 214.808 235.521 216.72 234.724C218.632 233.926 220.863 233.607 223.413 233.607C225.963 233.607 228.194 233.926 230.106 234.724C232.018 235.521 233.612 236.478 234.886 237.753C236.161 239.029 237.117 240.624 238.073 242.537C238.87 244.451 239.508 246.364 239.826 248.437C240.145 250.51 240.304 252.902 240.304 255.294V285.113C240.304 299.623 234.727 306.799 223.413 306.799C212.258 306.799 206.521 299.464 206.521 285.113ZM234.09 286.388V253.859C234.09 243.653 230.584 238.71 223.413 238.71C216.401 238.71 212.736 243.813 212.736 253.859V286.388C212.736 296.594 216.242 301.696 223.413 301.696C230.584 301.696 234.09 296.594 234.09 286.388Z" fill="#CCCCD1"/>
<path d="M254.487 305.683V244.769C253.372 245.567 251.938 246.364 250.344 247.002C248.75 247.64 247.476 248.118 246.52 248.437V242.377C248.113 241.74 250.025 240.783 251.938 239.507C253.85 238.232 255.443 236.477 256.559 234.723H260.861V305.683H254.487Z" fill="#CCCCD1"/>
<path d="M271.698 289.258V288.142H277.594C277.594 290.853 277.912 293.245 278.391 294.999C278.869 296.753 279.506 298.188 280.462 299.145C281.418 300.102 282.374 300.74 283.49 301.058C284.605 301.377 286.039 301.537 287.792 301.537C289.386 301.537 290.661 301.377 291.617 300.899C292.732 300.421 293.688 299.623 294.485 298.667C295.282 297.55 295.919 296.115 296.397 294.042C296.875 291.969 297.035 289.577 297.035 286.548V273.153C294.485 274.429 290.979 275.067 286.836 275.067C283.968 275.067 281.418 274.588 279.347 273.472C277.275 272.356 275.522 270.921 274.247 269.007C272.973 267.094 272.016 265.021 271.379 262.469C270.742 260.078 270.423 257.367 270.423 254.337C270.423 251.307 270.742 248.437 271.379 246.045C272.016 243.494 272.973 241.421 274.247 239.348C275.522 237.434 277.275 235.999 279.506 234.883C281.737 233.767 284.287 233.288 287.155 233.288C292.732 233.288 296.876 235.042 299.266 238.71C301.815 242.378 303.09 247.64 303.09 254.656V286.229C303.09 299.623 297.832 306.48 287.155 306.48C284.446 306.48 282.056 306.002 279.984 305.045C277.912 304.088 276.319 302.812 275.203 301.058C274.088 299.304 273.291 297.55 272.654 295.477C272.016 293.723 271.698 291.65 271.698 289.258ZM296.716 268.21V255.453C296.716 252.742 296.557 250.351 296.397 248.437C296.079 246.523 295.76 244.929 295.282 243.653C294.804 242.378 294.167 241.421 293.37 240.623C292.573 239.986 291.617 239.348 290.661 239.188C289.705 238.869 288.589 238.71 287.155 238.71C283.49 238.71 280.781 239.826 279.187 242.218C277.434 244.61 276.638 248.756 276.638 254.656C276.638 260.396 277.434 264.383 279.028 266.775C280.621 269.007 283.171 270.283 286.677 270.283C288.589 270.283 290.501 270.123 292.573 269.804C294.485 269.167 295.919 268.848 296.716 268.21Z" fill="#CCCCD1"/>
<path d="M158.397 483.958V478.696L177.52 449.993C178.635 448.239 179.591 446.964 180.229 445.688C180.866 444.572 181.663 443.137 182.619 441.382C183.575 439.628 184.213 437.874 184.691 436.28C185.169 434.685 185.328 433.091 185.328 431.496C185.328 427.031 184.531 423.523 183.097 420.972C181.663 418.42 179.273 417.145 175.926 417.145C174.014 417.145 172.421 417.464 170.986 418.101C169.552 418.739 168.437 419.537 167.799 420.493C167.003 421.45 166.365 422.726 165.887 424.32C165.409 425.915 165.09 427.35 164.931 428.785C164.772 430.22 164.772 431.974 164.772 433.888H158.557V432.931C158.876 419.058 164.612 412.042 175.926 412.042C181.185 412.042 185.009 413.796 187.718 417.145C190.427 420.653 191.702 425.437 191.702 431.496C191.702 434.366 190.906 437.715 189.312 441.223C187.718 444.891 185.806 448.239 183.735 451.269L165.887 479.015H190.906V484.118H158.397V483.958Z" fill="#CCCCD1"/>
<path d="M199.032 463.388V433.728C199.032 431.177 199.192 428.945 199.51 426.872C199.829 424.799 200.466 422.885 201.263 420.972C202.06 419.058 203.175 417.623 204.45 416.188C205.725 414.912 207.319 413.956 209.231 413.158C211.143 412.361 213.374 412.042 215.924 412.042C218.473 412.042 220.704 412.361 222.617 413.158C224.529 413.956 226.122 414.912 227.397 416.188C228.672 417.464 229.628 419.058 230.584 420.972C231.381 422.885 232.018 424.799 232.337 426.872C232.656 428.945 232.815 431.337 232.815 433.728V463.547C232.815 478.058 227.238 485.234 215.924 485.234C204.61 485.074 199.032 477.899 199.032 463.388ZM226.6 464.823V432.293C226.6 422.088 223.095 417.145 215.924 417.145C208.753 417.145 205.247 422.247 205.247 432.293V464.823C205.247 475.028 208.753 480.131 215.924 480.131C223.095 480.131 226.6 475.028 226.6 464.823Z" fill="#CCCCD1"/>
<path d="M239.986 483.958V478.696L259.109 449.993C260.224 448.239 261.18 446.964 261.818 445.688C262.455 444.572 263.252 443.137 264.208 441.382C265.164 439.628 265.802 437.874 266.28 436.28C266.758 434.685 266.917 433.091 266.917 431.496C266.917 427.031 266.12 423.523 264.686 420.972C263.252 418.42 260.862 417.145 257.515 417.145C255.603 417.145 254.009 417.464 252.575 418.101C251.141 418.739 250.026 419.537 249.388 420.493C248.591 421.45 247.954 422.726 247.476 424.32C246.998 425.915 246.679 427.35 246.52 428.785C246.36 430.22 246.36 431.974 246.36 433.888H240.146V432.931C240.464 419.058 246.201 412.042 257.515 412.042C262.774 412.042 266.598 413.796 269.307 417.145C272.016 420.653 273.291 425.437 273.291 431.496C273.291 434.366 272.494 437.715 270.901 441.223C269.307 444.891 267.395 448.239 265.324 451.269L247.476 479.015H272.494V484.118H239.986V483.958Z" fill="#CCCCD1"/>
<path d="M280.621 463.388V433.728C280.621 431.177 280.78 428.945 281.099 426.872C281.418 424.799 282.055 422.885 282.852 420.972C283.649 419.058 284.764 417.623 286.039 416.188C287.314 414.912 288.907 413.956 290.82 413.158C292.732 412.361 294.963 412.042 297.513 412.042C300.062 412.042 302.293 412.361 304.205 413.158C306.118 413.956 307.711 414.912 308.986 416.188C310.261 417.464 311.217 419.058 312.173 420.972C312.97 422.885 313.607 424.799 313.926 426.872C314.245 428.945 314.404 431.337 314.404 433.728V463.547C314.404 478.058 308.827 485.234 297.513 485.234C286.198 485.074 280.621 477.899 280.621 463.388ZM308.03 464.823V432.293C308.03 422.088 304.524 417.145 297.353 417.145C290.182 417.145 286.677 422.247 286.677 432.293V464.823C286.677 475.028 290.182 480.131 297.353 480.131C304.524 480.131 308.03 475.028 308.03 464.823Z" fill="#CCCCD1"/>
<path d="M166.046 662.392V657.13L185.168 628.428C186.284 626.674 187.24 625.398 187.877 624.122C188.515 623.006 189.311 621.571 190.268 619.817C191.224 618.063 191.861 616.309 192.339 614.714C192.817 613.12 192.977 611.525 192.977 609.93C192.977 605.466 192.18 601.957 190.746 599.406C189.311 596.855 186.921 595.579 183.575 595.579C181.663 595.579 180.069 595.898 178.635 596.536C177.201 597.174 176.085 597.971 175.448 598.928C174.651 599.885 174.014 601.16 173.536 602.755C173.057 604.349 172.739 605.784 172.579 607.22C172.42 608.655 172.42 610.409 172.42 612.322H166.205V611.366C166.524 597.493 172.261 590.476 183.575 590.476C188.833 590.476 192.658 592.231 195.367 595.579C198.076 599.087 199.351 603.871 199.351 609.93C199.351 612.801 198.554 616.149 196.96 619.657C195.367 623.325 193.455 626.674 191.383 629.703L173.536 657.449H198.554V662.552H166.046V662.392Z" fill="#CCCCD1"/>
<path d="M206.521 641.822V612.003C206.521 609.452 206.681 607.22 207 605.147C207.318 603.074 207.956 601.16 208.752 599.247C209.549 597.333 210.665 595.898 211.939 594.463C213.214 593.187 214.808 592.23 216.72 591.433C218.632 590.636 220.863 590.317 223.413 590.317C225.963 590.317 228.194 590.636 230.106 591.433C232.018 592.23 233.612 593.187 234.886 594.463C236.161 595.739 237.117 597.333 238.073 599.247C238.87 601.16 239.508 603.074 239.826 605.147C240.145 607.22 240.304 609.612 240.304 612.003V641.822C240.304 656.333 234.727 663.509 223.413 663.509C212.258 663.509 206.521 656.174 206.521 641.822ZM234.09 643.098V610.568C234.09 600.363 230.584 595.42 223.413 595.42C216.401 595.42 212.736 600.522 212.736 610.568V643.098C212.736 653.303 216.242 658.406 223.413 658.406C230.584 658.406 234.09 653.303 234.09 643.098Z" fill="#CCCCD1"/>
<path d="M247.476 662.392V657.13L266.598 628.428C267.713 626.674 268.67 625.398 269.307 624.122C269.944 623.006 270.741 621.571 271.697 619.817C272.653 618.063 273.291 616.309 273.769 614.714C274.247 613.12 274.406 611.525 274.406 609.93C274.406 605.466 273.61 601.957 272.175 599.406C270.741 596.855 268.351 595.579 265.004 595.579C263.092 595.579 261.499 595.898 260.064 596.536C258.63 597.174 257.515 597.971 256.877 598.928C256.081 599.885 255.443 601.16 254.965 602.755C254.487 604.349 254.168 605.785 254.009 607.22C253.85 608.655 253.85 610.409 253.85 612.322H247.635V611.366C247.954 597.493 253.69 590.476 265.004 590.476C270.263 590.476 274.088 592.231 276.797 595.579C279.506 599.087 280.78 603.871 280.78 609.93C280.78 612.801 279.984 616.149 278.39 619.657C276.797 623.325 274.884 626.674 272.813 629.703L254.965 657.29H279.984V662.392H247.476Z" fill="#CCCCD1"/>
<path d="M292.891 662.392V601.479C291.775 602.276 290.341 603.074 288.747 603.712C287.154 604.349 285.879 604.828 284.923 605.147V599.247C286.516 598.609 288.429 597.652 290.341 596.376C292.253 595.101 293.847 593.347 294.962 591.593H299.265V662.552H292.891V662.392Z" fill="#CCCCD1"/>
<path d="M163.178 840.668V835.406L182.3 806.703C183.416 804.949 184.372 803.673 185.009 802.398C185.647 801.281 186.443 799.846 187.399 798.092C188.356 796.338 188.993 794.584 189.471 792.989C189.949 791.395 190.108 789.8 190.108 788.206C190.108 783.741 189.312 780.233 187.878 777.681C186.443 775.13 184.053 773.854 180.707 773.854C178.794 773.854 177.201 774.173 175.767 774.811C174.332 775.449 173.217 776.246 172.58 777.203C171.783 778.16 171.145 779.435 170.667 781.03C170.189 782.625 169.871 784.06 169.711 785.495C169.552 786.93 169.552 788.684 169.552 790.598H163.337V789.641C163.656 775.768 169.393 768.752 180.707 768.752C185.965 768.752 189.79 770.506 192.499 773.854C195.208 777.362 196.483 782.146 196.483 788.206C196.483 791.076 195.686 794.425 194.092 797.933C192.499 801.6 190.587 804.949 188.515 807.979L170.667 835.724H195.686V840.827H163.178V840.668Z" fill="#CCCCD1"/>
<path d="M203.812 820.097V790.279C203.812 787.727 203.972 785.495 204.291 783.422C204.609 781.349 205.247 779.435 206.043 777.522C206.84 775.608 207.956 774.173 209.231 772.738C210.505 771.462 212.099 770.506 214.011 769.708C215.923 768.911 218.154 768.592 220.704 768.592C223.254 768.592 225.485 768.911 227.397 769.708C229.309 770.506 230.903 771.462 232.177 772.738C233.452 774.014 234.408 775.608 235.364 777.522C236.161 779.435 236.799 781.349 237.117 783.422C237.436 785.495 237.595 787.887 237.595 790.279V820.097C237.595 834.608 232.018 841.784 220.704 841.784C209.39 841.784 203.812 834.608 203.812 820.097ZM231.381 821.533V789.003C231.381 778.798 227.875 773.854 220.704 773.854C213.692 773.854 210.027 778.957 210.027 789.003V821.533C210.027 831.738 213.533 836.841 220.704 836.841C227.716 836.841 231.381 831.738 231.381 821.533Z" fill="#CCCCD1"/>
<path d="M244.767 840.668V835.406L263.889 806.703C265.004 804.949 265.961 803.673 266.598 802.398C267.235 801.281 268.032 799.846 268.988 798.092C269.944 796.338 270.582 794.584 271.06 792.989C271.538 791.395 271.697 789.8 271.697 788.206C271.697 783.741 270.901 780.233 269.466 777.681C268.032 775.13 265.642 773.854 262.295 773.854C260.383 773.854 258.79 774.173 257.356 774.811C255.921 775.449 254.806 776.246 254.168 777.203C253.372 778.16 252.734 779.435 252.256 781.03C251.778 782.625 251.459 784.06 251.3 785.495C251.141 786.93 251.141 788.684 251.141 790.598H244.926V789.641C245.245 775.768 250.981 768.752 262.295 768.752C267.554 768.752 271.379 770.506 274.088 773.854C276.797 777.362 278.071 782.146 278.071 788.206C278.071 791.076 277.275 794.425 275.681 797.933C274.088 801.6 272.175 804.949 270.104 807.979L252.256 835.724H277.275V840.827H244.767V840.668Z" fill="#CCCCD1"/>
<path d="M283.171 840.668V835.406L302.293 806.703C303.409 804.949 304.365 803.673 305.002 802.398C305.64 801.281 306.437 799.846 307.393 798.092C308.349 796.338 308.986 794.584 309.464 792.989C309.942 791.395 310.102 789.8 310.102 788.206C310.102 783.741 309.305 780.233 307.871 777.681C306.437 775.13 304.046 773.854 300.7 773.854C298.788 773.854 297.194 774.173 295.76 774.811C294.326 775.449 293.21 776.246 292.573 777.203C291.776 778.16 291.139 779.435 290.661 781.03C290.182 782.625 289.864 784.06 289.704 785.495C289.545 786.93 289.545 788.684 289.545 790.598H283.33V789.641C283.649 775.768 289.386 768.752 300.7 768.752C305.958 768.752 309.783 770.506 312.492 773.854C315.201 777.362 316.476 782.146 316.476 788.206C316.476 791.076 315.679 794.425 314.085 797.933C312.492 801.6 310.58 804.949 308.508 807.979L290.661 835.724H315.52V840.827H283.171V840.668Z" fill="#CCCCD1"/>
<path d="M379.579 92.4862H376.392C375.436 92.4862 374.799 91.8484 374.799 90.8916C374.799 89.9349 375.436 89.2971 376.392 89.2971H379.579C380.536 89.2971 381.173 89.9349 381.173 90.8916C381.173 91.6889 380.376 92.4862 379.579 92.4862Z" fill="#A1A2AA"/>
<path d="M469.135 92.4862H463.08C462.124 92.4862 461.487 91.8484 461.487 90.8916C461.487 89.9349 462.124 89.2971 463.08 89.2971H469.135C470.092 89.2971 470.729 89.9349 470.729 90.8916C470.729 91.6889 470.092 92.4862 469.135 92.4862ZM454.316 92.4862H448.26C447.304 92.4862 446.667 91.8484 446.667 90.8916C446.667 89.9349 447.304 89.2971 448.26 89.2971H454.316C455.272 89.2971 455.909 89.9349 455.909 90.8916C455.909 91.6889 455.112 92.4862 454.316 92.4862ZM439.336 92.4862H433.281C432.325 92.4862 431.687 91.8484 431.687 90.8916C431.687 89.9349 432.325 89.2971 433.281 89.2971H439.336C440.293 89.2971 440.93 89.9349 440.93 90.8916C440.93 91.6889 440.133 92.4862 439.336 92.4862ZM424.357 92.4862H418.302C417.346 92.4862 416.708 91.8484 416.708 90.8916C416.708 89.9349 417.346 89.2971 418.302 89.2971H424.357C425.313 89.2971 425.951 89.9349 425.951 90.8916C425.951 91.6889 425.313 92.4862 424.357 92.4862ZM409.378 92.4862H403.323C402.366 92.4862 401.729 91.8484 401.729 90.8916C401.729 89.9349 402.366 89.2971 403.323 89.2971H409.378C410.334 89.2971 410.972 89.9349 410.972 90.8916C410.972 91.6889 410.334 92.4862 409.378 92.4862ZM394.558 92.4862H388.503C387.547 92.4862 386.909 91.8484 386.909 90.8916C386.909 89.9349 387.547 89.2971 388.503 89.2971H394.558C395.514 89.2971 396.152 89.9349 396.152 90.8916C396.152 91.6889 395.355 92.4862 394.558 92.4862Z" fill="#A1A2AA"/>
<path d="M481.407 92.4862H478.22C477.263 92.4862 476.626 91.8484 476.626 90.8916C476.626 89.9349 477.263 89.2971 478.22 89.2971H481.407C482.363 89.2971 483 89.9349 483 90.8916C483 91.6889 482.203 92.4862 481.407 92.4862Z" fill="#A1A2AA"/>
<path d="M365.238 114.811C378.439 114.811 389.141 104.102 389.141 90.8917C389.141 77.6816 378.439 66.9728 365.238 66.9728C352.037 66.9728 341.335 77.6816 341.335 90.8917C341.335 104.102 352.037 114.811 365.238 114.811Z" fill="#D46027"/>
<path d="M365.238 102.851C371.838 102.851 377.189 97.4966 377.189 90.8916C377.189 84.2866 371.838 78.9322 365.238 78.9322C358.637 78.9322 353.286 84.2866 353.286 90.8916C353.286 97.4966 358.637 102.851 365.238 102.851Z" fill="#0066A4"/>
<path d="M106.608 272.356H103.421C102.465 272.356 101.827 271.718 101.827 270.761C101.827 269.805 102.465 269.167 103.421 269.167H106.608C107.564 269.167 108.201 269.805 108.201 270.761C108.201 271.559 107.405 272.356 106.608 272.356Z" fill="#A1A2AA"/>
<path d="M94.496 272.356H88.4406C87.4845 272.356 86.8471 271.718 86.8471 270.761C86.8471 269.805 87.4845 269.167 88.4406 269.167H94.496C95.4521 269.167 96.0896 269.805 96.0896 270.761C96.0896 271.559 95.2928 272.356 94.496 272.356ZM79.5168 272.356H73.4614C72.5053 272.356 71.8679 271.718 71.8679 270.761C71.8679 269.805 72.5053 269.167 73.4614 269.167H79.5168C80.4729 269.167 81.1104 269.805 81.1104 270.761C81.1104 271.559 80.3136 272.356 79.5168 272.356ZM64.5376 272.356H58.4822C57.5261 272.356 56.8886 271.718 56.8886 270.761C56.8886 269.805 57.5261 269.167 58.4822 269.167H64.5376C65.4937 269.167 66.1311 269.805 66.1311 270.761C66.1311 271.559 65.4937 272.356 64.5376 272.356ZM49.5584 272.356H43.503C42.5468 272.356 41.9094 271.718 41.9094 270.761C41.9094 269.805 42.5468 269.167 43.503 269.167H49.5584C50.5145 269.167 51.1519 269.805 51.1519 270.761C51.1519 271.559 50.5145 272.356 49.5584 272.356ZM34.7385 272.356H28.6831C27.727 272.356 27.0896 271.718 27.0896 270.761C27.0896 269.805 27.727 269.167 28.6831 269.167H34.7385C35.6946 269.167 36.3321 269.805 36.3321 270.761C36.3321 271.559 35.5353 272.356 34.7385 272.356ZM19.7593 272.356H13.7039C12.7478 272.356 12.1104 271.718 12.1104 270.761C12.1104 269.805 12.7478 269.167 13.7039 269.167H19.7593C20.7154 269.167 21.3528 269.805 21.3528 270.761C21.3528 271.559 20.5561 272.356 19.7593 272.356Z" fill="#A1A2AA"/>
<path d="M4.7806 272.356H1.59353C0.637413 272.356 0 271.718 0 270.761C0 269.805 0.637413 269.167 1.59353 269.167H4.7806C5.73672 269.167 6.37413 269.805 6.37413 270.761C6.37413 271.559 5.73672 272.356 4.7806 272.356Z" fill="#A1A2AA"/>
<path d="M116.806 294.68C130.008 294.68 140.709 283.971 140.709 270.761C140.709 257.551 130.008 246.843 116.806 246.843C103.605 246.843 92.9033 257.551 92.9033 270.761C92.9033 283.971 103.605 294.68 116.806 294.68Z" fill="#0066A4"/>
<path d="M116.806 282.721C123.407 282.721 128.757 277.366 128.757 270.761C128.757 264.156 123.407 258.802 116.806 258.802C110.205 258.802 104.854 264.156 104.854 270.761C104.854 277.366 110.205 282.721 116.806 282.721Z" fill="#D46027"/>
<path d="M379.579 448.558H376.392C375.436 448.558 374.799 447.92 374.799 446.963C374.799 446.007 375.436 445.369 376.392 445.369H379.579C380.536 445.369 381.173 446.007 381.173 446.963C381.173 447.761 380.376 448.558 379.579 448.558Z" fill="#A1A2AA"/>
<path d="M469.135 448.558H463.08C462.124 448.558 461.487 447.92 461.487 446.963C461.487 446.007 462.124 445.369 463.08 445.369H469.135C470.092 445.369 470.729 446.007 470.729 446.963C470.729 447.761 470.092 448.558 469.135 448.558ZM454.316 448.558H448.26C447.304 448.558 446.667 447.92 446.667 446.963C446.667 446.007 447.304 445.369 448.26 445.369H454.316C455.272 445.369 455.909 446.007 455.909 446.963C455.909 447.761 455.112 448.558 454.316 448.558ZM439.336 448.558H433.281C432.325 448.558 431.687 447.92 431.687 446.963C431.687 446.007 432.325 445.369 433.281 445.369H439.336C440.293 445.369 440.93 446.007 440.93 446.963C440.93 447.761 440.133 448.558 439.336 448.558ZM424.357 448.558H418.302C417.346 448.558 416.708 447.92 416.708 446.963C416.708 446.007 417.346 445.369 418.302 445.369H424.357C425.313 445.369 425.951 446.007 425.951 446.963C425.951 447.761 425.313 448.558 424.357 448.558ZM409.378 448.558H403.323C402.366 448.558 401.729 447.92 401.729 446.963C401.729 446.007 402.366 445.369 403.323 445.369H409.378C410.334 445.369 410.972 446.007 410.972 446.963C410.972 447.761 410.334 448.558 409.378 448.558ZM394.558 448.558H388.503C387.547 448.558 386.909 447.92 386.909 446.963C386.909 446.007 387.547 445.369 388.503 445.369H394.558C395.514 445.369 396.152 446.007 396.152 446.963C396.152 447.761 395.355 448.558 394.558 448.558Z" fill="#A1A2AA"/>
<path d="M481.407 448.558H478.22C477.263 448.558 476.626 447.92 476.626 446.963C476.626 446.007 477.263 445.369 478.22 445.369H481.407C482.363 445.369 483 446.007 483 446.963C483 447.761 482.203 448.558 481.407 448.558Z" fill="#A1A2AA"/>
<path d="M365.238 470.882C378.439 470.882 389.141 460.173 389.141 446.963C389.141 433.753 378.439 423.045 365.238 423.045C352.037 423.045 341.335 433.753 341.335 446.963C341.335 460.173 352.037 470.882 365.238 470.882Z" fill="#D46027"/>
<path d="M365.238 458.923C371.838 458.923 377.189 453.568 377.189 446.963C377.189 440.358 371.838 435.004 365.238 435.004C358.637 435.004 353.286 440.358 353.286 446.963C353.286 453.568 358.637 458.923 365.238 458.923Z" fill="#0066A4"/>
<path d="M106.608 628.906H103.421C102.465 628.906 101.827 628.268 101.827 627.312C101.827 626.355 102.465 625.717 103.421 625.717H106.608C107.564 625.717 108.201 626.355 108.201 627.312C108.201 628.109 107.405 628.906 106.608 628.906Z" fill="#A1A2AA"/>
<path d="M94.496 628.906H88.4406C87.4845 628.906 86.8471 628.268 86.8471 627.312C86.8471 626.355 87.4845 625.717 88.4406 625.717H94.496C95.4521 625.717 96.0896 626.355 96.0896 627.312C96.0896 628.109 95.2928 628.906 94.496 628.906ZM79.5168 628.906H73.4614C72.5053 628.906 71.8679 628.268 71.8679 627.312C71.8679 626.355 72.5053 625.717 73.4614 625.717H79.5168C80.4729 625.717 81.1104 626.355 81.1104 627.312C81.1104 628.109 80.3136 628.906 79.5168 628.906ZM64.5376 628.906H58.4822C57.5261 628.906 56.8886 628.268 56.8886 627.312C56.8886 626.355 57.5261 625.717 58.4822 625.717H64.5376C65.4937 625.717 66.1311 626.355 66.1311 627.312C66.1311 628.109 65.4937 628.906 64.5376 628.906ZM49.5584 628.906H43.503C42.5468 628.906 41.9094 628.268 41.9094 627.312C41.9094 626.355 42.5468 625.717 43.503 625.717H49.5584C50.5145 625.717 51.1519 626.355 51.1519 627.312C51.1519 628.109 50.5145 628.906 49.5584 628.906ZM34.7385 628.906H28.6831C27.727 628.906 27.0896 628.268 27.0896 627.312C27.0896 626.355 27.727 625.717 28.6831 625.717H34.7385C35.6946 625.717 36.3321 626.355 36.3321 627.312C36.3321 628.109 35.5353 628.906 34.7385 628.906ZM19.7593 628.906H13.7039C12.7478 628.906 12.1104 628.268 12.1104 627.312C12.1104 626.355 12.7478 625.717 13.7039 625.717H19.7593C20.7154 625.717 21.3528 626.355 21.3528 627.312C21.3528 628.109 20.5561 628.906 19.7593 628.906Z" fill="#A1A2AA"/>
<path d="M4.7806 628.906H1.59353C0.637413 628.906 0 628.268 0 627.312C0 626.355 0.637413 625.717 1.59353 625.717H4.7806C5.73672 625.717 6.37413 626.355 6.37413 627.312C6.37413 628.109 5.73672 628.906 4.7806 628.906Z" fill="#A1A2AA"/>
<path d="M116.806 651.23C130.008 651.23 140.709 640.522 140.709 627.312C140.709 614.102 130.008 603.393 116.806 603.393C103.605 603.393 92.9033 614.102 92.9033 627.312C92.9033 640.522 103.605 651.23 116.806 651.23Z" fill="#0066A4"/>
<path d="M116.806 639.271C123.407 639.271 128.757 633.917 128.757 627.312C128.757 620.707 123.407 615.352 116.806 615.352C110.205 615.352 104.854 620.707 104.854 627.312C104.854 633.917 110.205 639.271 116.806 639.271Z" fill="#D46027"/>
<path d="M379.579 804.63H376.392C375.436 804.63 374.799 803.992 374.799 803.035C374.799 802.079 375.436 801.441 376.392 801.441H379.579C380.536 801.441 381.173 802.079 381.173 803.035C381.173 803.833 380.376 804.63 379.579 804.63Z" fill="#A1A2AA"/>
<path d="M469.135 804.63H463.08C462.124 804.63 461.487 803.992 461.487 803.035C461.487 802.079 462.124 801.441 463.08 801.441H469.135C470.092 801.441 470.729 802.079 470.729 803.035C470.729 803.833 470.092 804.63 469.135 804.63ZM454.316 804.63H448.26C447.304 804.63 446.667 803.992 446.667 803.035C446.667 802.079 447.304 801.441 448.26 801.441H454.316C455.272 801.441 455.909 802.079 455.909 803.035C455.909 803.833 455.112 804.63 454.316 804.63ZM439.336 804.63H433.281C432.325 804.63 431.687 803.992 431.687 803.035C431.687 802.079 432.325 801.441 433.281 801.441H439.336C440.293 801.441 440.93 802.079 440.93 803.035C440.93 803.833 440.133 804.63 439.336 804.63ZM424.357 804.63H418.302C417.346 804.63 416.708 803.992 416.708 803.035C416.708 802.079 417.346 801.441 418.302 801.441H424.357C425.313 801.441 425.951 802.079 425.951 803.035C425.951 803.833 425.313 804.63 424.357 804.63ZM409.378 804.63H403.323C402.366 804.63 401.729 803.992 401.729 803.035C401.729 802.079 402.366 801.441 403.323 801.441H409.378C410.334 801.441 410.972 802.079 410.972 803.035C410.972 803.833 410.334 804.63 409.378 804.63ZM394.558 804.63H388.503C387.547 804.63 386.909 803.992 386.909 803.035C386.909 802.079 387.547 801.441 388.503 801.441H394.558C395.514 801.441 396.152 802.079 396.152 803.035C396.152 803.833 395.355 804.63 394.558 804.63Z" fill="#A1A2AA"/>
<path d="M481.407 804.63H478.22C477.263 804.63 476.626 803.992 476.626 803.035C476.626 802.079 477.263 801.441 478.22 801.441H481.407C482.363 801.441 483 802.079 483 803.035C483 803.833 482.203 804.63 481.407 804.63Z" fill="#A1A2AA"/>
<path d="M365.238 826.954C378.439 826.954 389.141 816.245 389.141 803.035C389.141 789.825 378.439 779.117 365.238 779.117C352.037 779.117 341.335 789.825 341.335 803.035C341.335 816.245 352.037 826.954 365.238 826.954Z" fill="#D46027"/>
<path d="M365.238 814.995C371.838 814.995 377.189 809.64 377.189 803.035C377.189 796.43 371.838 791.076 365.238 791.076C358.637 791.076 353.286 796.43 353.286 803.035C353.286 809.64 358.637 814.995 365.238 814.995Z" fill="#0066A4"/>
</g>
<defs>
<clipPath id="clip0_312_872">
<rect width="483" height="896" fill="white"/>
</clipPath>
</defs>
</svg>
